PathFileType  4	(X/Y/Z) C:\Users\antoi\Documents\MyRepositories\mobilecap\ResultsAnalysis
DataRate	CameraRate	NumFrames	NumMarkers	Units	OrigDataRate	OrigDataStartFrame	OrigNumFrames
100.0	100.0	4	51	mm	100.0	51	134
Frame#	Time	r_knee			r_shank_antsup			r_ankle			r_calc			r_5meta			r_toe			L_knee			L_shank_antsup			L_ankle			L_calc			L_5meta			L_toe			r_sh2			r_sh3			r_sh4			L_sh2			L_sh3			r_thigh1			r_thigh2			r_thigh3			r_thigh4			r_thigh5			L_thigh1			L_thigh2			L_thigh3			L_thigh4			r.ASIS			r.PSIS			L.ASIS			L.PSIS			C7			R_Shoulder			L_Shoulder			R_Sternum			L_Sternum			R_humerus			R_elbow_med			R_elbow_lat			R_forearm			R_wrist_radius			R_wrist_ulna			L_humerus			L_elbow_med			L_elbow_lat			L_forearm			L_wrist_radius			L_wrist_ulna			R_HJC			L_HJC			R_HJC_reg			L_HJC_reg			
		X1	Y1	Z1	X2	Y2	Z2	X3	Y3	Z3	X4	Y4	Z4	X5	Y5	Z5	X6	Y6	Z6	X7	Y7	Z7	X8	Y8	Z8	X9	Y9	Z9	X10	Y10	Z10	X11	Y11	Z11	X12	Y12	Z12	X13	Y13	Z13	X14	Y14	Z14	X15	Y15	Z15	X16	Y16	Z16	X17	Y17	Z17	X18	Y18	Z18	X19	Y19	Z19	X20	Y20	Z20	X21	Y21	Z21	X22	Y22	Z22	X23	Y23	Z23	X24	Y24	Z24	X25	Y25	Z25	X26	Y26	Z26	X27	Y27	Z27	X28	Y28	Z28	X29	Y29	Z29	X30	Y30	Z30	X31	Y31	Z31	X32	Y32	Z32	X33	Y33	Z33	X34	Y34	Z34	X35	Y35	Z35	X36	Y36	Z36	X37	Y37	Z37	X38	Y38	Z38	X39	Y39	Z39	X40	Y40	Z40	X41	Y41	Z41	X42	Y42	Z42	X43	Y43	Z43	X44	Y44	Z44	X45	Y45	Z45	X46	Y46	Z46	X47	Y47	Z47	X48	Y48	Z48	X49	Y49	Z49	X50	Y50	Z50	X51	Y51	Z51	

51	0.50000000	363.98210	483.09789	-33.15117	379.00089	403.26570	-59.91372	198.35651	108.89466	-71.38322	118.04418	84.94608	-94.40167	295.38972	43.09557	-55.18165	337.06649	64.85389	-119.84718	677.65823	502.88350	-286.02927	745.74109	435.39690	-279.92091	810.24138	121.77702	-275.17754	756.95694	54.07037	-248.21094	941.06235	105.35514	-270.85870	950.41093	147.95982	-211.98662	322.33416	302.44981	-38.71130	315.20944	437.11681	-17.40504	259.97503	339.32311	-18.01469	661.90094	412.85365	-306.25605	708.00857	298.94283	-315.01656	507.00626	773.35888	14.30062	475.10532	666.63427	-1.49069	415.32041	657.73885	23.05321	397.54131	799.59070	36.12909	366.73019	687.57070	12.23658	599.87944	754.32860	-336.82706	658.35246	633.02662	-307.19837	496.55838	707.22168	-312.83554	561.72427	583.18810	-296.71951	546.41160	951.39294	-14.47830	367.04985	986.16696	-121.96633	584.38475	939.72077	-262.62321	372.57281	983.98510	-222.53101	358.21545	1393.89385	-173.00086	469.58669	1368.06919	1.08710	433.45623	1362.77268	-352.90603	499.79506	1369.94877	-155.96428	502.83917	1370.69669	-197.70218	519.39330	1243.64494	63.04760	510.92122	1020.97588	51.93142	550.22423	1050.25972	105.10526	661.46075	966.90969	67.84557	740.06910	860.96850	43.42185	742.25171	853.77306	78.37558	449.59919	1248.80484	-416.71271	358.06893	1027.45915	-386.23259	405.11428	1042.04066	-446.73758	449.76044	934.78183	-419.32636	451.75451	775.02881	-419.38798	455.63070	781.29921	-453.78423	473.67895	870.23028	-47.84795	503.32691	864.61560	-252.09438	486.26686	874.32628	-50.96106	495.36247	870.73622	-216.54107	
52	0.51000000	372.93667	481.57042	-33.92955	386.88764	401.26503	-60.62293	200.19258	110.71072	-71.22246	119.49597	88.31513	-94.25958	295.78900	42.97836	-55.15395	338.04414	64.43616	-119.67279	691.61139	501.81848	-284.74252	757.26135	432.51975	-279.26595	816.67927	118.29566	-273.92314	762.38365	52.70560	-246.66678	947.03550	99.96594	-269.94900	957.37630	142.83329	-211.37703	328.23719	301.72028	-39.09269	323.90621	436.51128	-18.09966	266.60910	339.91708	-18.42827	672.89150	411.34668	-304.90265	716.94516	296.70451	-313.62715	517.67152	771.14683	13.84271	485.33433	664.57353	-1.90822	425.38115	656.06803	22.34695	408.29129	798.05506	35.14328	376.80968	686.17840	11.32549	615.13207	754.08979	-335.87131	673.38959	632.71031	-305.89315	511.45605	706.33888	-314.62900	576.89735	582.46789	-297.56295	557.99339	948.93878	-14.22907	379.57028	984.13921	-123.50198	597.74976	938.27586	-262.26327	385.57202	982.44273	-224.01288	370.68545	1391.95929	-174.60751	482.08296	1366.63024	-0.38833	446.60788	1361.47610	-354.20024	512.49122	1368.48898	-157.27645	515.89556	1369.13031	-198.94824	533.09986	1242.49096	61.06466	526.74806	1019.77962	49.49690	566.13675	1049.30207	102.39351	677.67122	966.73926	64.43401	756.80585	861.27976	39.41921	759.14685	853.97506	74.29869	461.83301	1247.42769	-418.02141	368.58106	1026.94436	-386.71935	415.70879	1040.90621	-447.28241	458.99638	933.19690	-419.51861	458.91967	773.39202	-419.21243	463.09151	779.67553	-453.59726	485.37258	867.94806	-48.77100	516.75051	863.11859	-252.77861	498.30019	871.92184	-51.33978	508.19169	869.12871	-216.97155	
53	0.52000000	382.53433	479.99710	-34.82799	395.35974	399.23730	-61.41746	202.28052	112.94113	-71.05883	121.25122	92.31407	-94.17377	296.29292	42.93240	-55.16526	339.19917	63.96162	-119.50089	705.36013	500.83021	-283.22545	768.50574	429.54460	-278.39252	821.62983	114.60023	-272.73087	765.83079	52.02626	-245.28354	951.19573	93.66586	-269.46157	963.05030	136.36604	-210.97948	334.63266	301.10247	-39.54907	333.26141	435.96545	-18.90486	273.78896	340.69139	-18.92885	683.49544	410.05337	-303.19971	725.06622	294.54719	-311.96971	528.81597	769.02448	13.20955	496.10027	662.59517	-2.51922	435.99913	654.40202	21.46130	419.52867	796.49117	34.02328	387.52008	684.70861	10.20154	630.16421	753.80651	-334.89588	688.21420	632.37354	-304.53485	526.38302	705.61908	-316.31955	591.97376	581.80343	-297.96646	569.92845	946.51705	-14.08447	392.37889	982.26817	-124.90411	611.31518	937.14627	-262.02725	398.77888	981.13125	-225.38272	383.26157	1390.20581	-176.33936	494.54080	1365.42866	-1.93725	460.02080	1360.41675	-355.57163	525.28330	1367.23706	-158.65803	529.11726	1367.73741	-200.28327	546.70472	1241.59310	59.01575	542.41648	1018.87862	46.83801	581.85322	1048.58949	99.54895	693.69028	966.73916	61.09650	773.32663	861.69708	35.64607	775.75132	854.28218	70.48283	474.43054	1246.28463	-419.36725	379.30630	1026.72837	-387.36516	426.61144	1040.03509	-447.93970	468.58374	931.94219	-419.70881	466.38361	772.07801	-418.94603	470.95358	778.37451	-453.30943	497.43200	865.73429	-49.80859	530.37137	861.91791	-253.59162	510.67025	869.64367	-51.82765	521.22388	867.77104	-217.51167	
54	0.53000000	392.83416	478.45724	-35.79270	404.43818	397.24553	-62.19612	204.67397	115.64911	-70.88730	123.36268	97.02038	-94.17068	296.88937	42.97753	-55.21491	340.53561	63.39883	-119.33121	718.63230	499.86439	-281.68267	779.54950	426.66531	-277.29859	825.88033	111.02069	-271.50873	768.16569	52.15045	-244.00995	954.31991	86.96050	-269.06775	967.99044	129.05735	-210.46051	341.51657	300.66832	-40.00289	343.24979	435.55979	-19.77760	281.51649	341.72450	-19.50123	693.91331	408.95090	-301.34275	732.88583	292.57443	-310.13911	540.43573	767.05907	12.45384	507.41957	660.75725	-3.29703	447.17329	652.79888	20.42225	431.22455	794.95512	32.78425	398.84140	683.23845	8.87582	644.75622	753.37610	-334.09005	702.51004	631.88609	-303.26773	541.12590	705.12812	-317.92112	606.56709	581.17052	-297.96629	582.25093	944.22735	-14.07240	405.47389	980.61263	-126.16549	625.09760	936.31036	-261.92510	412.21755	980.09071	-226.63344	395.93767	1388.66468	-178.16694	506.96656	1364.45947	-3.52799	473.67477	1359.58969	-357.01088	538.16312	1366.21478	-160.08134	542.46183	1366.55856	-201.67551	560.19951	1240.92997	56.94778	557.89199	1018.25275	43.98374	597.32434	1048.09636	96.61927	709.50010	966.91120	57.87665	789.64695	862.25057	32.12557	792.06480	854.70583	66.93932	487.42508	1245.36509	-420.73301	390.25251	1026.78315	-388.17888	437.80704	1039.41689	-448.71897	478.50726	931.00605	-419.92495	474.18637	771.07909	-418.62690	479.24585	777.38330	-452.96211	509.87814	863.67701	-50.92659	544.18513	861.01422	-254.50341	523.39179	867.54028	-52.45529	534.51530	866.68076	-218.17822	
